<svg id="Layer_1" data-name="Layer 1" xmlns="http://www.w3.org/2000/svg" viewBox="0 0 1032.83642 157.78723"><defs><style>.cls-1{fill:#17b1cf;}.cls-2{fill:#138fa8;}</style></defs><title>logo</title><path class="cls-1" d="M82.68151,85.58653a29.03149,29.03149,0,1,1-.09288-42.63633L102.75432,23.294A57.17561,57.17561,0,1,0,35.575,114.52727h-.00172l26.82667,36.76043,26.39894-35.90991a.60875.60875,0,0,1,.21247-.1808,57.35379,57.35379,0,0,0,13.741-9.86577Z"/><circle class="cls-1" cx="62.70046" cy="64.0479" r="14.85033"/><path class="cls-2" d="M230.17291,95.53894c-3.91357,15.11816-15.96533,26.27539-37.521,26.27539-27.96045,0-41.71778-19.40625-41.71778-43.73731,0-23.4082,13.93115-44.50586,42.36035-44.50586,22.60743,0,34.34229,12.25293,36.86426,26.60743h-14.9956c-2.76075-8.3252-8.7168-15.209-22.41016-15.209-18.71289,0-26.22315,15.92578-26.22315,32.6416,0,15.97461,6.94092,32.80371,26.75049,32.80371,13.64551,0,19.03223-7.78613,21.82373-14.876Z"/><path class="cls-2" d="M261.338,34.80945v51.4873c0,18.8584,10.78174,24.11816,21.793,24.11816,12.80127,0,21.50146-5.86328,21.50146-24.11816V34.80945h15.05469V85.58288c0,28.42578-17.11816,36.23145-36.81982,36.23145-19.65381,0-36.64258-8.33008-36.64258-35.59668V34.80945Z"/><path class="cls-2" d="M342.38385,34.80945h14.9956v74.06738h46.87793l-1.90185,11.80957H342.38385Z"/><path class="cls-2" d="M422.11334,46.619H393.24322V34.80945h72.78125V46.619H437.168V120.6864H422.11334Z"/><path class="cls-2" d="M495.37067,34.80945v51.4873c0,18.8584,10.78173,24.11816,21.793,24.11816,12.80127,0,21.50147-5.86328,21.50147-24.11816V34.80945h15.05469V85.58288c0,28.42578-17.11817,36.23145-36.81983,36.23145-19.65381,0-36.64258-8.33008-36.64258-35.59668V34.80945Z"/><path class="cls-2" d="M591.17926,84.15906V120.6864h-14.7627v-85.877h37.397c19.2163,0,29.49755,9.85058,29.49755,23.20019,0,11.29785-6.76953,17.86426-14.71972,20.24414,6.35742,1.7627,12.97754,6.69336,12.97754,21.77539v3.8916c0,5.86329-.16211,13.01075,1.25976,16.76563H628.43024c-1.64063-3.71582-1.68262-10.30859-1.68262-18.76758v-1.61328c0-11.16113-3.24317-16.14648-19.01563-16.14648Zm0-11.53614H609.816c12.79052,0,18.1914-4.5332,18.1914-13.25586,0-8.32324-5.77978-13.02148-17.16162-13.02148h-19.6665Z"/><path class="cls-2" d="M678.32965,97.15222l-8.81738,23.53418H654.67633l31.98926-85.877h18.64746l33.36719,85.877H722.80719l-9.1543-23.53418Zm31.7832-11.80957C702.23492,64.44421,697.69,52.60632,695.62457,45.621h-.13183c-2.24122,7.72851-7.29883,21.85351-13.63672,39.72168Z"/><path class="cls-2" d="M752.04254,34.80945h14.99512v74.06738h46.87793l-1.90137,11.80957H752.04254Z"/><path class="cls-2" d="M882.19781,120.6864l-32.8955-85.877h16.10644l15.16113,41.63183c4.48536,12.376,8.60938,24.12695,10.66016,32.32422h.26367c1.90528-7.39941,6.48438-19.61914,11.11524-31.96582l15.82031-41.99023h15.3916L899.898,120.6864Z"/><path class="cls-2" d="M946.5191,120.6864v-85.877h19.22657c12.47558,19.78027,38.208,59.50781,42.98828,68.85253h.20507c-.9375-10.249-.87793-24.30761-.87793-38.35839V34.80945h13.8877v85.877h-18.14355C992.57281,102.745,965.21832,59.0487,959.939,49.30652H959.734c.65918,8.92871.74609,24.64453.74609,40.10058v31.2793Z"/></svg>