<svg id="Layer_1" data-name="Layer 1" xmlns="http://www.w3.org/2000/svg" viewBox="0 0 1620.76596 309.44681"><defs><style>.cls-1{fill:#17b1cf;}.cls-2{fill:#138fa8;}</style></defs><title>logo1</title><path class="cls-1" d="M349.88764,161.09717a29.03149,29.03149,0,1,1-.09288-42.63634l20.16569-19.65622a57.17561,57.17561,0,1,0-67.17936,91.2333l-.00172,0L329.606,226.79833,356.005,190.88842a.60875.60875,0,0,1,.21247-.1808,57.35379,57.35379,0,0,0,13.741-9.86577Z"/><circle class="cls-1" cx="329.90659" cy="139.55854" r="14.85033"/><path class="cls-2" d="M500.379,166.05055c-3.91357,15.11817-15.96533,26.27539-37.521,26.27539-27.96045,0-41.71778-19.40625-41.71778-43.7373,0-23.4082,13.93115-44.50586,42.36035-44.50586,22.60743,0,34.34229,12.25293,36.86426,26.60742h-14.9956c-2.76075-8.32519-8.7168-15.209-22.41016-15.209-18.71289,0-26.22315,15.92578-26.22315,32.6416,0,15.97461,6.94092,32.80371,26.75049,32.80371,13.64551,0,19.03223-7.78613,21.82373-14.876Z"/><path class="cls-2" d="M531.54457,105.32106v51.48731c0,18.85839,10.78174,24.11816,21.793,24.11816,12.80127,0,21.50146-5.86328,21.50146-24.11816V105.32106h15.05469V156.0945c0,28.42578-17.11816,36.23144-36.81982,36.23144-19.65381,0-36.64258-8.33007-36.64258-35.59668v-51.4082Z"/><path class="cls-2" d="M612.591,105.32106h14.9956v74.06738h46.87793L672.56264,191.198H612.591Z"/><path class="cls-2" d="M692.32045,117.13063H663.45033V105.32106h72.78125v11.80957H707.37514V191.198H692.32045Z"/><path class="cls-2" d="M765.57826,105.32106v51.48731c0,18.85839,10.78174,24.11816,21.793,24.11816,12.80127,0,21.50146-5.86328,21.50146-24.11816V105.32106h15.05469V156.0945c0,28.42578-17.11816,36.23144-36.81982,36.23144-19.65381,0-36.64258-8.33007-36.64258-35.59668v-51.4082Z"/><path class="cls-2" d="M861.38734,154.67067V191.198H846.62465v-85.877h37.397c19.21631,0,29.49756,9.85059,29.49756,23.2002,0,11.29785-6.76953,17.86425-14.71973,20.24414,6.35742,1.76269,12.97754,6.69336,12.97754,21.77539v3.8916c0,5.86328-.16211,13.01074,1.25977,16.76562H898.63832c-1.64063-3.71582-1.68262-10.30859-1.68262-18.76757v-1.61329c0-11.16113-3.24316-16.14648-19.01562-16.14648Zm0-11.53613h18.63672c12.79053,0,18.19141-4.53321,18.19141-13.25586,0-8.32324-5.77979-13.02149-17.16162-13.02149H861.38734Z"/><path class="cls-2" d="M948.53871,167.66383,939.72035,191.198H924.88441l31.99024-85.877h18.64746l33.36719,85.877h-15.874l-9.1543-23.53418Zm31.78223-11.80957c-7.87793-20.89843-12.42286-32.73632-14.48731-39.72168h-.13183c-2.24122,7.72852-7.29981,21.85352-13.6377,39.72168Z"/><path class="cls-2" d="M1022.25062,105.32106h14.9961v74.06738h46.87793L1082.2223,191.198h-59.97168Z"/><path class="cls-2" d="M1152.40687,191.198l-32.8955-85.877h16.10644l15.16113,41.63184c4.48536,12.376,8.60938,24.12695,10.66016,32.32422h.26367c1.90528-7.39942,6.48438-19.61915,11.11524-31.96583l15.82031-41.99023h15.3916l-33.92285,85.877Z"/><path class="cls-2" d="M1216.72914,191.198v-85.877h19.22656c12.47559,19.78027,38.208,59.50781,42.98828,68.85254h.20508c-.9375-10.249-.87793-24.30762-.87793-38.3584V105.32106h13.8877v85.877h-18.14356c-11.23242-17.9414-38.58691-61.63769-43.86621-71.37988h-.20508c.65918,8.92871.7461,24.64453.7461,40.10059V191.198Z"/></svg>